# xmcd
# 
# Track frame offsets:
#     150
#     17761
#     31677
#     46853
#     59526
#     79917
#     93186
#     109368
#     124580
#     138469
#     152644
#     168782
# 
# Disc length: 2458
# 
# Revision: 1
# Processed by: cddbd v1.5.2PL0 Copyright (c) Steve Scherf et al.
# Submitted via: fre:ac v1.0.31
# 
DISCID=8f09980c
DTITLE=Lindsay Ell - The Project
DYEAR=2017
DGENRE=Country
TTITLE0=Waiting On You
TTITLE1=Champagne
TTITLE2=Castle
TTITLE3=Good
TTITLE4=Wildfire
TTITLE5=Mint
TTITLE6=White Noise
TTITLE7=Criminal
TTITLE8=Just Another Girl
TTITLE9=Space
TTITLE10=Always Kiss The Girl
TTITLE11=Worth The Wait
EXTD=
EXTT0=
EXTT1=
EXTT2=
EXTT3=
EXTT4=
EXTT5=
EXTT6=
EXTT7=
EXTT8=
EXTT9=
EXTT10=
EXTT11=
PLAYORDER=
